<svg xmlns="http://www.w3.org/2000/svg" width="600" height="800" viewBox="0 0 600 800">
  <defs>
    <linearGradient id="bg" x1="0%" y1="0%" x2="100%" y2="100%">
      <stop offset="0%" style="stop-color:#201e1e"/>
      <stop offset="50%" style="stop-color:#2a2626"/>
      <stop offset="100%" style="stop-color:#1a1717"/>
    </linearGradient>
    <linearGradient id="accent" x1="0%" y1="0%" x2="0%" y2="100%">
      <stop offset="0%" style="stop-color:#9b6d53"/>
      <stop offset="100%" style="stop-color:#7a5640"/>
    </linearGradient>
  </defs>
  <rect width="600" height="800" fill="url(#bg)"/>
  <rect x="0" y="780" width="600" height="20" fill="url(#accent)" opacity="0.6"/>
  <rect x="0" y="0" width="600" height="4" fill="#9b6d53" opacity="0.8"/>
  <!-- Shorts silhouette -->
  <g transform="translate(300,320)" opacity="0.15">
    <path d="M-70,-100 L-90,-100 Q-95,-100 -95,-90 L-95,-20 L-80,80 L-10,80 L-10,-10 L10,-10 L10,80 L80,80 L95,-20 L95,-90 Q95,-100 90,-100 L70,-100 L50,-85 L-50,-85 Z" fill="#9b6d53" stroke="#9b6d53" stroke-width="2"/>
    <line x1="-10" y1="-10" x2="-10" y2="-85" stroke="#7a5640" stroke-width="1.5"/>
    <line x1="10" y1="-10" x2="10" y2="-85" stroke="#7a5640" stroke-width="1.5"/>
    <ellipse cx="0" cy="-70" rx="15" ry="5" fill="none" stroke="#7a5640" stroke-width="1"/>
    <rect x="20" y="-60" width="25" height="22" rx="3" fill="none" stroke="#7a5640" stroke-width="1"/>
  </g>
  <!-- Text -->
  <text x="300" y="560" font-family="'Helvetica Neue', Arial, sans-serif" font-size="48" font-weight="700" fill="#9b6d53" text-anchor="middle" letter-spacing="12">BERMUDAS</text>
  <line x1="180" y1="580" x2="420" y2="580" stroke="#9b6d53" stroke-width="1" opacity="0.5"/>
  <text x="300" y="610" font-family="'Helvetica Neue', Arial, sans-serif" font-size="14" fill="#ffffff" text-anchor="middle" opacity="0.4" letter-spacing="4">CLUB KAROLAY</text>
</svg>