<svg xmlns="http://www.w3.org/2000/svg" width="600" height="800" viewBox="0 0 600 800">
  <defs>
    <linearGradient id="bg" x1="0%" y1="0%" x2="100%" y2="100%">
      <stop offset="0%" style="stop-color:#201e1e"/>
      <stop offset="50%" style="stop-color:#2a2626"/>
      <stop offset="100%" style="stop-color:#1a1717"/>
    </linearGradient>
    <linearGradient id="accent" x1="0%" y1="0%" x2="0%" y2="100%">
      <stop offset="0%" style="stop-color:#9b6d53"/>
      <stop offset="100%" style="stop-color:#7a5640"/>
    </linearGradient>
  </defs>
  <rect width="600" height="800" fill="url(#bg)"/>
  <rect x="0" y="780" width="600" height="20" fill="url(#accent)" opacity="0.6"/>
  <rect x="0" y="0" width="600" height="4" fill="#9b6d53" opacity="0.8"/>
  <!-- Jacket silhouette -->
  <g transform="translate(300,320)" opacity="0.15">
    <path d="M-20,-160 L-40,-160 Q-50,-155 -55,-140 L-80,-60 L-110,-60 L-110,100 L-70,100 L-70,140 L-10,140 L-10,-120 L10,-120 L10,140 L70,140 L70,100 L110,100 L110,-60 L80,-60 L55,-140 Q50,-155 40,-160 L20,-160 L10,-140 L-10,-140 Z" fill="#9b6d53" stroke="#9b6d53" stroke-width="2"/>
    <line x1="0" y1="-140" x2="0" y2="140" stroke="#7a5640" stroke-width="2"/>
    <rect x="-30" y="20" width="20" height="25" rx="3" fill="none" stroke="#7a5640" stroke-width="1.5"/>
    <rect x="10" y="20" width="20" height="25" rx="3" fill="none" stroke="#7a5640" stroke-width="1.5"/>
    <path d="M-20,-160 L-10,-140 L0,-155 L10,-140 L20,-160" fill="none" stroke="#7a5640" stroke-width="1.5"/>
  </g>
  <!-- Text -->
  <text x="300" y="560" font-family="'Helvetica Neue', Arial, sans-serif" font-size="52" font-weight="700" fill="#9b6d53" text-anchor="middle" letter-spacing="14">CASACAS</text>
  <line x1="195" y1="580" x2="405" y2="580" stroke="#9b6d53" stroke-width="1" opacity="0.5"/>
  <text x="300" y="610" font-family="'Helvetica Neue', Arial, sans-serif" font-size="14" fill="#ffffff" text-anchor="middle" opacity="0.4" letter-spacing="4">CLUB KAROLAY</text>
</svg>