<svg xmlns="http://www.w3.org/2000/svg" width="600" height="800" viewBox="0 0 600 800">
  <defs>
    <linearGradient id="bg" x1="0%" y1="0%" x2="100%" y2="100%">
      <stop offset="0%" style="stop-color:#201e1e"/>
      <stop offset="50%" style="stop-color:#2a2626"/>
      <stop offset="100%" style="stop-color:#1a1717"/>
    </linearGradient>
    <linearGradient id="accent" x1="0%" y1="0%" x2="0%" y2="100%">
      <stop offset="0%" style="stop-color:#9b6d53"/>
      <stop offset="100%" style="stop-color:#7a5640"/>
    </linearGradient>
  </defs>
  <rect width="600" height="800" fill="url(#bg)"/>
  <rect x="0" y="780" width="600" height="20" fill="url(#accent)" opacity="0.6"/>
  <rect x="0" y="0" width="600" height="4" fill="#9b6d53" opacity="0.8"/>
  <!-- Pants silhouette -->
  <g transform="translate(300,340)" opacity="0.15">
    <path d="M-60,-150 L-80,-150 Q-90,-150 -90,-140 L-90,0 L-70,150 L-10,150 L-10,10 L10,10 L10,150 L70,150 L90,0 L90,-140 Q90,-150 80,-150 L60,-150 L40,-130 L-40,-130 Z" fill="#9b6d53" stroke="#9b6d53" stroke-width="2"/>
    <line x1="-10" y1="10" x2="-10" y2="-130" stroke="#7a5640" stroke-width="1.5"/>
    <line x1="10" y1="10" x2="10" y2="-130" stroke="#7a5640" stroke-width="1.5"/>
    <ellipse cx="0" cy="-110" rx="15" ry="5" fill="none" stroke="#7a5640" stroke-width="1"/>
  </g>
  <!-- Text -->
  <text x="300" y="560" font-family="'Helvetica Neue', Arial, sans-serif" font-size="56" font-weight="700" fill="#9b6d53" text-anchor="middle" letter-spacing="16">JEANS</text>
  <line x1="220" y1="580" x2="380" y2="580" stroke="#9b6d53" stroke-width="1" opacity="0.5"/>
  <text x="300" y="610" font-family="'Helvetica Neue', Arial, sans-serif" font-size="14" fill="#ffffff" text-anchor="middle" opacity="0.4" letter-spacing="4">CLUB KAROLAY</text>
</svg>