<svg xmlns="http://www.w3.org/2000/svg" width="600" height="800" viewBox="0 0 600 800">
  <defs>
    <linearGradient id="bg" x1="0%" y1="0%" x2="100%" y2="100%">
      <stop offset="0%" style="stop-color:#201e1e"/>
      <stop offset="60%" style="stop-color:#282424"/>
      <stop offset="100%" style="stop-color:#1a1717"/>
    </linearGradient>
  </defs>
  <rect width="600" height="800" fill="url(#bg)"/>
  <rect x="0" y="780" width="600" height="20" fill="#9b6d53" opacity="0.6"/>
  <rect x="0" y="0" width="600" height="4" fill="#9b6d53" opacity="0.8"/>
  <!-- Baggy pants silhouette - wide legs -->
  <g transform="translate(300,330)" opacity="0.15">
    <path d="M-55,-150 L-80,-150 Q-90,-150 -90,-140 L-100,0 Q-110,80 -100,160 L-5,160 L-5,10 L5,10 L5,160 L100,160 Q110,80 100,0 L90,-140 Q90,-150 80,-150 L55,-150 L40,-135 L-40,-135 Z" fill="#9b6d53" stroke="#9b6d53" stroke-width="2"/>
    <line x1="-5" y1="10" x2="-5" y2="-135" stroke="#7a5640" stroke-width="1.5"/>
    <line x1="5" y1="10" x2="5" y2="-135" stroke="#7a5640" stroke-width="1.5"/>
    <!-- Wrinkle lines for baggy effect -->
    <path d="M-70,40 Q-50,50 -30,40" fill="none" stroke="#7a5640" stroke-width="1"/>
    <path d="M-80,80 Q-55,90 -30,80" fill="none" stroke="#7a5640" stroke-width="1"/>
    <path d="M70,40 Q50,50 30,40" fill="none" stroke="#7a5640" stroke-width="1"/>
    <path d="M80,80 Q55,90 30,80" fill="none" stroke="#7a5640" stroke-width="1"/>
  </g>
  <rect x="220" y="490" width="160" height="30" rx="15" fill="none" stroke="#9b6d53" stroke-width="1" opacity="0.4"/>
  <text x="300" y="510" font-family="'Helvetica Neue', Arial, sans-serif" font-size="12" fill="#9b6d53" text-anchor="middle" opacity="0.6" letter-spacing="3">BAGGY FIT</text>
  <text x="300" y="570" font-family="'Helvetica Neue', Arial, sans-serif" font-size="46" font-weight="700" fill="#9b6d53" text-anchor="middle" letter-spacing="8">JEAN BAGGY</text>
  <line x1="190" y1="590" x2="410" y2="590" stroke="#9b6d53" stroke-width="1" opacity="0.5"/>
  <text x="300" y="620" font-family="'Helvetica Neue', Arial, sans-serif" font-size="14" fill="#ffffff" text-anchor="middle" opacity="0.4" letter-spacing="4">CLUB KAROLAY</text>
</svg>