<svg xmlns="http://www.w3.org/2000/svg" width="600" height="800" viewBox="0 0 600 800">
  <defs>
    <linearGradient id="bg" x1="0%" y1="0%" x2="100%" y2="100%">
      <stop offset="0%" style="stop-color:#201e1e"/>
      <stop offset="60%" style="stop-color:#282424"/>
      <stop offset="100%" style="stop-color:#1a1717"/>
    </linearGradient>
  </defs>
  <rect width="600" height="800" fill="url(#bg)"/>
  <rect x="0" y="780" width="600" height="20" fill="#9b6d53" opacity="0.6"/>
  <rect x="0" y="0" width="600" height="4" fill="#9b6d53" opacity="0.8"/>
  <!-- Mom jeans silhouette - high waist, relaxed taper -->
  <g transform="translate(300,330)" opacity="0.15">
    <path d="M-45,-160 L-70,-160 Q-78,-160 -78,-150 L-85,-20 L-70,160 L-8,160 L-8,10 L8,10 L8,160 L70,160 L85,-20 L78,-150 Q78,-160 70,-160 L45,-160 L30,-145 L-30,-145 Z" fill="#9b6d53" stroke="#9b6d53" stroke-width="2"/>
    <line x1="-8" y1="10" x2="-8" y2="-145" stroke="#7a5640" stroke-width="1.5"/>
    <line x1="8" y1="10" x2="8" y2="-145" stroke="#7a5640" stroke-width="1.5"/>
    <!-- High waist detail -->
    <line x1="-78" y1="-130" x2="78" y2="-130" stroke="#7a5640" stroke-width="1.5"/>
    <line x1="-77" y1="-120" x2="77" y2="-120" stroke="#7a5640" stroke-width="1"/>
  </g>
  <rect x="215" y="490" width="170" height="30" rx="15" fill="none" stroke="#9b6d53" stroke-width="1" opacity="0.4"/>
  <text x="300" y="510" font-family="'Helvetica Neue', Arial, sans-serif" font-size="12" fill="#9b6d53" text-anchor="middle" opacity="0.6" letter-spacing="3">MOM FIT</text>
  <text x="300" y="570" font-family="'Helvetica Neue', Arial, sans-serif" font-size="42" font-weight="700" fill="#9b6d53" text-anchor="middle" letter-spacing="6">JEAN MOM FIT</text>
  <line x1="180" y1="590" x2="420" y2="590" stroke="#9b6d53" stroke-width="1" opacity="0.5"/>
  <text x="300" y="620" font-family="'Helvetica Neue', Arial, sans-serif" font-size="14" fill="#ffffff" text-anchor="middle" opacity="0.4" letter-spacing="4">CLUB KAROLAY</text>
</svg>