<svg xmlns="http://www.w3.org/2000/svg" width="600" height="800" viewBox="0 0 600 800">
  <defs>
    <linearGradient id="bg" x1="0%" y1="0%" x2="100%" y2="100%">
      <stop offset="0%" style="stop-color:#201e1e"/>
      <stop offset="60%" style="stop-color:#282424"/>
      <stop offset="100%" style="stop-color:#1a1717"/>
    </linearGradient>
  </defs>
  <rect width="600" height="800" fill="url(#bg)"/>
  <rect x="0" y="780" width="600" height="20" fill="#9b6d53" opacity="0.6"/>
  <rect x="0" y="0" width="600" height="4" fill="#9b6d53" opacity="0.8"/>
  <!-- Skinny jeans silhouette - very narrow legs -->
  <g transform="translate(300,330)" opacity="0.15">
    <path d="M-45,-150 L-65,-150 Q-70,-150 -70,-140 L-68,0 L-38,160 L-3,160 L-3,10 L3,10 L3,160 L38,160 L68,0 L70,-140 Q70,-150 65,-150 L45,-150 L32,-135 L-32,-135 Z" fill="#9b6d53" stroke="#9b6d53" stroke-width="2"/>
    <line x1="-3" y1="10" x2="-3" y2="-135" stroke="#7a5640" stroke-width="1.5"/>
    <line x1="3" y1="10" x2="3" y2="-135" stroke="#7a5640" stroke-width="1.5"/>
    <ellipse cx="0" cy="-110" rx="12" ry="4" fill="none" stroke="#7a5640" stroke-width="1"/>
  </g>
  <rect x="215" y="490" width="170" height="30" rx="15" fill="none" stroke="#9b6d53" stroke-width="1" opacity="0.4"/>
  <text x="300" y="510" font-family="'Helvetica Neue', Arial, sans-serif" font-size="12" fill="#9b6d53" text-anchor="middle" opacity="0.6" letter-spacing="3">SKINNY FIT</text>
  <text x="300" y="570" font-family="'Helvetica Neue', Arial, sans-serif" font-size="40" font-weight="700" fill="#9b6d53" text-anchor="middle" letter-spacing="6">JEAN SKINNY</text>
  <line x1="180" y1="590" x2="420" y2="590" stroke="#9b6d53" stroke-width="1" opacity="0.5"/>
  <text x="300" y="620" font-family="'Helvetica Neue', Arial, sans-serif" font-size="14" fill="#ffffff" text-anchor="middle" opacity="0.4" letter-spacing="4">CLUB KAROLAY</text>
</svg>